<svg width="172" height="170" viewBox="0 0 172 170" fill="none" xmlns="http://www.w3.org/2000/svg">
<path d="M84.7664 40.398H83.8321V14.8095C83.8321 10.8818 82.2718 7.11494 79.4944 4.33761C76.7171 1.56029 72.9502 0 69.0225 0H14.8095C10.8818 0 7.11495 1.56029 4.33762 4.33761C1.56029 7.11494 0 10.8818 0 14.8095V155.19C0 159.118 1.56029 162.885 4.33762 165.662C7.11495 168.44 10.8818 170 14.8095 170H69.0223C72.95 170 76.7169 168.44 79.4942 165.662C82.2715 162.885 83.8318 159.118 83.8318 155.19V58.6124H84.7662L84.7664 40.398Z" fill="#3F3D56"/>
<path d="M69.62 3.85258H62.5434C62.869 4.65049 62.9934 5.51624 62.9055 6.37354C62.8177 7.23084 62.5203 8.05337 62.0396 8.76865C61.5589 9.48394 60.9097 10.07 60.1491 10.4753C59.3886 10.8805 58.54 11.0924 57.6782 11.0924H26.6205C25.7588 11.0924 24.9104 10.8804 24.1499 10.4752C23.3894 10.0699 22.7403 9.48394 22.2597 8.76875C21.779 8.05356 21.4817 7.23116 21.3938 6.37397C21.3058 5.51679 21.4301 4.65114 21.7555 3.85328H15.1449C12.2117 3.85328 9.39851 5.01852 7.32436 7.09266C5.25022 9.16681 4.08498 11.98 4.08498 14.9132V155.087C4.08498 158.021 5.25022 160.834 7.32436 162.908C9.39851 164.982 12.2117 166.147 15.1449 166.147H69.6179C72.5512 166.147 75.3643 164.982 77.4385 162.908C79.5126 160.834 80.6779 158.021 80.6779 155.087V14.9125C80.6779 11.9793 79.5126 9.16611 77.4385 7.09196C75.3643 5.01782 72.5512 3.85258 69.6179 3.85258H69.62Z" fill="white"/>
<path d="M73.7501 31.4144H11.0158V138.586H73.7501V31.4144Z" fill="#E6E6E6"/>
<path d="M42.476 158.314C45.8302 158.314 48.5494 155.595 48.5494 152.241C48.5494 148.886 45.8302 146.167 42.476 146.167C39.1218 146.167 36.4027 148.886 36.4027 152.241C36.4027 155.595 39.1218 158.314 42.476 158.314Z" fill="#E6E6E6"/>
<path d="M71.5074 150.057L70.8136 156.764L74.7452 156.302L75.2077 150.751L71.5074 150.057Z" fill="#FFB9B9"/>
<path d="M61.1005 99.1772C61.1005 99.1772 40.9796 118.604 53.6997 124.617H57.6313C57.6313 124.617 66.1883 110.509 70.3513 110.741L71.5076 124.155L70.8139 151.214L75.9019 151.445C75.9019 151.445 78.9084 137.8 78.6772 130.168L83.9964 101.953L61.1005 99.1772Z" fill="#2F2E41"/>
<path d="M54.8555 123.692L57.6308 124.617C57.6308 124.617 68.5006 122.073 69.1935 122.305L71.3455 122.29L71.2754 116.754H62.0253L54.8555 123.692Z" fill="#2F2E41"/>
<path d="M75.2077 155.377C75.2077 155.377 71.0447 153.527 70.3509 155.377C69.6571 157.227 69.8884 162.546 69.8884 162.546C70.4432 163.613 70.6069 164.841 70.3509 166.015C69.8884 167.866 72.2012 168.791 75.2077 167.866C78.2142 166.941 78.2142 164.628 78.2142 164.628L75.2077 155.377Z" fill="#2F2E41"/>
<path d="M78.6767 116.29C78.6767 116.29 81.9145 114.44 81.6832 117.215C81.4913 119.048 81.0234 120.842 80.2955 122.535C80.2955 122.535 83.302 130.398 80.2955 131.092C77.2889 131.786 74.9762 130.167 74.9762 129.01C74.9762 127.854 78.6767 116.29 78.6767 116.29Z" fill="#2F2E41"/>
<path d="M68.5006 52.9227L68.9634 61.7112L72.8949 65.1798L77.2892 58.9355V52.6914L68.5006 52.9227Z" fill="#FFB9B9"/>
<path d="M71.5072 61.711L68.8597 59.7437L67.1131 62.4047L59.2498 67.0298L63.8749 79.0559L64.1061 90.8509C64.1061 90.8509 55.5491 99.6393 60.6371 100.796C65.7251 101.952 83.7645 104.496 84.6895 102.415C85.6145 100.333 83.5333 78.8249 83.5333 78.8249L84.227 60.5542L77.2894 58.0457L71.5072 61.711Z" fill="#FAA885"/>
<path d="M57.3995 76.3586C57.3995 76.3586 55.5492 89.463 59.0185 89.463C61.0788 89.47 63.1208 89.0773 65.0316 88.3067L62.2563 81.1372L63.4125 76.2804L57.3995 76.3586Z" fill="#FFB9B9"/>
<path d="M62.7188 87.8449L65.2628 88.3074C65.2628 88.3074 72.6636 83.6823 73.1261 83.4506C73.5886 83.2189 65.7253 79.2876 65.7253 79.2876L60.406 81.3691L62.7188 87.8449Z" fill="#FFB9B9"/>
<path opacity="0.1" d="M65.7254 79.2876L62.3851 80.5945L63.4129 76.2811L57.3998 76.3584C57.3998 76.3584 55.5496 89.4627 59.0188 89.4627C61.0791 89.4698 63.1211 89.0771 65.0319 88.3065L65.0143 88.2612L65.2631 88.3065C65.2631 88.3065 72.6639 83.6814 73.1264 83.4497C73.5889 83.218 65.7254 79.2876 65.7254 79.2876Z" fill="black"/>
<path d="M73.851 57.3078C77.4983 57.3078 80.455 54.3511 80.455 50.7038C80.455 47.0565 77.4983 44.0998 73.851 44.0998C70.2037 44.0998 67.247 47.0565 67.247 50.7038C67.247 54.3511 70.2037 57.3078 73.851 57.3078Z" fill="#FFB9B9"/>
<path d="M68.0122 43.2535L66.7218 42.737C66.7218 42.737 69.4198 39.7667 73.1733 40.025L72.1175 38.8627C72.1175 38.8627 74.6982 37.8295 77.0441 40.5415C78.2775 41.9664 79.7043 43.6428 80.5947 45.5305H81.9766L81.3999 46.8003L83.4179 48.0708L81.3459 47.8425C81.5422 48.9389 81.475 50.0662 81.1499 51.1315L81.2055 52.1359C81.2055 52.1359 78.804 48.4202 78.804 47.9037V49.1953C78.804 49.1953 77.5137 48.0329 77.5137 47.2581L76.8099 48.1621L76.4569 46.7393L72.1168 48.1598L72.8206 46.9974L70.1227 47.3849L71.1785 45.9645C71.1785 45.9645 68.1287 47.6433 68.0112 49.064C67.8937 50.4847 66.3691 52.2924 66.3691 52.2924L65.6653 51.0009C65.6653 51.0009 64.6104 45.1906 68.0122 43.2535Z" fill="#2F2E41"/>
<path d="M79.6017 72.3495C78.4345 73.7916 77.7831 75.5826 77.7514 77.4376L65.4939 76.9751C65.4939 76.9751 62.2561 76.5126 62.2561 78.8253V81.1378C62.2561 81.1378 63.8751 80.4441 64.8001 81.1378C65.7251 81.8316 75.6699 87.8449 80.5267 85.5321C85.3835 83.2193 86.5398 74.1998 86.5398 74.1998C86.5398 74.1998 82.1457 70.4993 79.6017 72.3495Z" fill="#FFB9B9"/>
<path d="M82.3781 60.7857L84.2284 60.5545C84.2284 60.5545 87.9287 61.017 87.4662 68.1865C87.0037 75.356 86.7724 75.8186 86.7724 75.8186C86.7724 75.8186 81.9156 71.4243 78.4466 73.506L82.3781 60.7857Z" fill="#FAA885"/>
<path d="M60.1748 67.031H59.2498C58.0512 68.5449 57.3992 70.4193 57.3995 72.3502C57.3783 74.4183 57.1065 76.4762 56.5902 78.4789L63.8753 77.207L60.1748 67.031Z" fill="#FAA885"/>
<path d="M171.861 31.4084H104.706V44.6671H171.861V31.4084Z" fill="#E6E6E6"/>
<path d="M106.137 43.2357H170.429V32.841H106.137V43.2357Z" fill="white"/>
<path d="M111.766 33.9914C112.549 33.9914 113.315 34.2237 113.966 34.6589C114.617 35.0941 115.125 35.7126 115.425 36.4363C115.724 37.16 115.803 37.9563 115.65 38.7246C115.497 39.4928 115.12 40.1985 114.566 40.7524C114.012 41.3063 113.306 41.6835 112.538 41.8363C111.77 41.9891 110.974 41.9107 110.25 41.6109C109.526 41.3112 108.908 40.8035 108.472 40.1522C108.037 39.5009 107.805 38.7352 107.805 37.9519C107.805 36.9015 108.222 35.8942 108.965 35.1514C109.708 34.4087 110.715 33.9914 111.766 33.9914V33.9914Z" fill="#FAA885"/>
<path d="M160.324 36.4021H121.236V37.2631H160.324V36.4021Z" fill="#E6E6E6"/>
<path d="M160.324 38.6405H121.236V39.5015H160.324V38.6405Z" fill="#E6E6E6"/>
<path d="M171.861 50.3291H104.706V63.5878H171.861V50.3291Z" fill="#E6E6E6"/>
<path d="M106.137 62.1564H170.429V51.7617H106.137V62.1564Z" fill="white"/>
<path d="M111.766 60.8331C113.953 60.8331 115.726 59.06 115.726 56.8726C115.726 54.6853 113.953 52.9121 111.766 52.9121C109.578 52.9121 107.805 54.6853 107.805 56.8726C107.805 59.06 109.578 60.8331 111.766 60.8331Z" fill="#FAA885"/>
<path d="M160.324 55.3228H121.236V56.1838H160.324V55.3228Z" fill="#E6E6E6"/>
<path d="M160.324 57.5612H121.236V58.4222H160.324V57.5612Z" fill="#E6E6E6"/>
<path d="M171.861 69.2498H104.706V82.5086H171.861V69.2498Z" fill="#E6E6E6"/>
<path d="M106.137 81.0771H170.429V70.6824H106.137V81.0771Z" fill="white"/>
<path d="M111.766 79.7538C113.953 79.7538 115.726 77.9806 115.726 75.7933C115.726 73.606 113.953 71.8328 111.766 71.8328C109.578 71.8328 107.805 73.606 107.805 75.7933C107.805 77.9806 109.578 79.7538 111.766 79.7538Z" fill="#FAA885"/>
<path d="M160.324 74.2435H121.236V75.1045H160.324V74.2435Z" fill="#E6E6E6"/>
<path d="M160.324 76.4819H121.236V77.3429H160.324V76.4819Z" fill="#E6E6E6"/>
</svg>
